# xmcd
#
# Track frame offsets: 
#        150
#        10644
#        20704
#        32395
#        44978
#        53939
#        62567
#        72929
#        82625
#        93956
#        106403
#        114265
#
# Disc length: 1706 seconds
#
# Revision: 0
# Processed by: cddbd v1.5.2PL0 Copyright (c) Steve Scherf et al.
# Submitted via: ExactAudioCopy v1.1
#
DISCID=8e06a80c
DTITLE=Various Artist - Cabin On A Mountain (King and Starday )
DYEAR=2003
DGENRE=Bluegrass
TTITLE0=Jimmy Martin and Bob Osborne - Blue Eyed Darling
TTITLE1=Vern and Ray - Cabin On A Mountain
TTITLE2=Stoneman Family - Orange Blossom Breakdown
TTITLE3=Jimmy Martin and Bob Osborne - You'll Never Be The Same
TTITLE4=Vern and Ray - Thinkin' Of Home
TTITLE5=Stoneman Family - Turn Me Loose
TTITLE6=Jimmy Martin and Bob Osborne - My Lonely Heart
TTITLE7=Vern and Ray - Carroll County Breakdown
TTITLE8=Stoneman Family - That Pal Of Mine
TTITLE9=Jimmy Martin and Bob Osborne - She's Just A Cute Thing
TTITLE10=Vern and Ray - Blue Grass Style
TTITLE11=Stoneman Family - Talking Fiddle Blues
EXTD=
EXTT0=
EXTT1=
EXTT2=
EXTT3=
EXTT4=
EXTT5=
EXTT6=
EXTT7=
EXTT8=
EXTT9=
EXTT10=
EXTT11=
PLAYORDER=
